<?xml version="1.0" encoding="iso-8859-1"?>
<!-- Generator: Adobe Illustrator 20.1.0, SVG Export Plug-In . SVG Version: 6.00 Build 0)  -->
<svg xmlns="http://www.w3.org/2000/svg" xmlns:xlink="http://www.w3.org/1999/xlink" version="1.1" id="&#1057;&#1083;&#1086;&#1081;_1" x="0px" y="0px" viewBox="0 0 64 64" style="enable-background:new 0 0 64 64;" xml:space="preserve">
<linearGradient id="SVGID_1__43586" gradientUnits="userSpaceOnUse" x1="17" y1="9.875" x2="17" y2="16.0612" spreadMethod="reflect">
	<stop offset="0" style="stop-color:#6DC7FF"/>
	<stop offset="1" style="stop-color:#E6ABFF"/>
</linearGradient>
<path style="fill:url(#SVGID_1__43586);" d="M14,16v-5c0-0.552,0.448-1,1-1h5L14,16z"/>
<linearGradient id="SVGID_2__43586" gradientUnits="userSpaceOnUse" x1="32" y1="5.875" x2="32" y2="58.9472" spreadMethod="reflect">
	<stop offset="0" style="stop-color:#1A6DFF"/>
	<stop offset="1" style="stop-color:#C822FF"/>
</linearGradient>
<path style="fill:url(#SVGID_2__43586);" d="M45,38.051V15.828c0-0.801-0.313-1.555-0.879-2.121l-6.828-6.828  C36.727,6.313,35.973,6,35.172,6H13c-1.654,0-3,1.346-3,3v35v1v4c0,1.654,1.346,3,3,3h21.841c1.547,3.527,5.068,6,9.159,6  c5.514,0,10-4.486,10-10C54,42.824,50.046,38.554,45,38.051z M41.586,14H38c-0.552,0-1-0.448-1-1V9.414L41.586,14z M12,9  c0-0.552,0.448-1,1-1h22v5c0,1.654,1.346,3,3,3h5v22.051c-4.378,0.437-7.934,3.709-8.798,7.949H13c-0.552,0-1-0.448-1-1v-1V9z   M13,50c-0.552,0-1-0.448-1-1v-1.185C12.314,47.928,12.648,48,13,48h21c0,0.685,0.07,1.354,0.202,2H13z M44,56c-4.411,0-8-3.589-8-8  s3.589-8,8-8s8,3.589,8,8S48.411,56,44,56z"/>
<linearGradient id="SVGID_3__43586" gradientUnits="userSpaceOnUse" x1="44" y1="5.875" x2="44" y2="58.9472" spreadMethod="reflect">
	<stop offset="0" style="stop-color:#1A6DFF"/>
	<stop offset="1" style="stop-color:#C822FF"/>
</linearGradient>
<polygon style="fill:url(#SVGID_3__43586);" points="45,44 43,44 43,47 40,47 40,49 43,49 43,52 45,52 45,49 48,49 48,47 45,47 "/>
<linearGradient id="SVGID_4__43586" gradientUnits="userSpaceOnUse" x1="18" y1="5.875" x2="18" y2="58.9472" spreadMethod="reflect">
	<stop offset="0" style="stop-color:#1A6DFF"/>
	<stop offset="1" style="stop-color:#C822FF"/>
</linearGradient>
<path style="fill:url(#SVGID_4__43586);" d="M18,27c2.206,0,4-1.794,4-4s-1.794-4-4-4s-4,1.794-4,4S15.794,27,18,27z M18,21  c1.103,0,2,0.897,2,2s-0.897,2-2,2s-2-0.897-2-2S16.897,21,18,21z"/>
<linearGradient id="SVGID_5__43586" gradientUnits="userSpaceOnUse" x1="31.5" y1="5.875" x2="31.5" y2="58.9472" spreadMethod="reflect">
	<stop offset="0" style="stop-color:#1A6DFF"/>
	<stop offset="1" style="stop-color:#C822FF"/>
</linearGradient>
<rect x="24" y="20" style="fill:url(#SVGID_5__43586);" width="15" height="2"/>
<linearGradient id="SVGID_6__43586" gradientUnits="userSpaceOnUse" x1="18" y1="5.875" x2="18" y2="58.9472" spreadMethod="reflect">
	<stop offset="0" style="stop-color:#1A6DFF"/>
	<stop offset="1" style="stop-color:#C822FF"/>
</linearGradient>
<path style="fill:url(#SVGID_6__43586);" d="M18,39c2.206,0,4-1.794,4-4s-1.794-4-4-4s-4,1.794-4,4S15.794,39,18,39z M18,33  c1.103,0,2,0.897,2,2s-0.897,2-2,2s-2-0.897-2-2S16.897,33,18,33z"/>
<linearGradient id="SVGID_7__43586" gradientUnits="userSpaceOnUse" x1="31.5" y1="5.875" x2="31.5" y2="58.9472" spreadMethod="reflect">
	<stop offset="0" style="stop-color:#1A6DFF"/>
	<stop offset="1" style="stop-color:#C822FF"/>
</linearGradient>
<rect x="24" y="32" style="fill:url(#SVGID_7__43586);" width="15" height="2"/>
<linearGradient id="SVGID_8__43586" gradientUnits="userSpaceOnUse" x1="28.5" y1="5.875" x2="28.5" y2="58.9472" spreadMethod="reflect">
	<stop offset="0" style="stop-color:#1A6DFF"/>
	<stop offset="1" style="stop-color:#C822FF"/>
</linearGradient>
<rect x="24" y="24" style="fill:url(#SVGID_8__43586);" width="9" height="2"/>
<linearGradient id="SVGID_9__43586" gradientUnits="userSpaceOnUse" x1="28.5" y1="5.875" x2="28.5" y2="58.9472" spreadMethod="reflect">
	<stop offset="0" style="stop-color:#1A6DFF"/>
	<stop offset="1" style="stop-color:#C822FF"/>
</linearGradient>
<rect x="24" y="36" style="fill:url(#SVGID_9__43586);" width="9" height="2"/>
</svg>
